<?xml version="1.0" encoding="UTF-8"?>
<svg width="31px" height="31px" viewBox="0 0 31 31" version="1.1" xmlns="http://www.w3.org/2000/svg" xmlns:xlink="http://www.w3.org/1999/xlink">
    <!-- Generator: Sketch 47.1 (45422) - http://www.bohemiancoding.com/sketch -->
    <title>avatar</title>
    <desc>Created with Sketch.</desc>
    <defs></defs>
    <g id="Symbols" stroke="none" stroke-width="1" fill="none" fill-rule="evenodd">
        <g id="avatar" fill="#6B6B8E" fill-rule="nonzero">
            <path d="M15.5,31 C24.0313351,31 31,24.0735695 31,15.5 C31,6.92643052 24.0313351,0 15.5,0 C6.96866485,0 0,6.96866485 0,15.5 C0,24.0313351 6.96866485,31 15.5,31 Z M6.1239782,25.5940054 C8.65803815,22.4264305 11.9945504,20.6948229 15.5,20.6948229 C19.0054496,20.6948229 22.3419619,22.4264305 24.8760218,25.5940054 C22.4264305,27.8746594 19.1321526,29.2683924 15.5,29.2683924 C11.8678474,29.2683924 8.57356948,27.8746594 6.1239782,25.5940054 Z M15.5,1.6893733 C23.1021798,1.6893733 29.3106267,7.89782016 29.3106267,15.5 C29.3106267,18.8787466 28.0858311,21.9618529 26.0585831,24.3692098 C23.1866485,20.9059946 19.4700272,19.0054496 15.5,19.0054496 C11.5299728,19.0054496 7.8133515,20.9059946 4.94141689,24.3692098 C2.91416894,21.9618529 1.6893733,18.8787466 1.6893733,15.5 C1.6893733,7.89782016 7.89782016,1.6893733 15.5,1.6893733 Z M15.5,16.893733 C18.7942779,16.893733 21.4972752,14.1907357 21.4972752,10.8964578 C21.4972752,7.60217984 18.7942779,4.89918256 15.5,4.89918256 C12.2057221,4.89918256 9.5027248,7.60217984 9.5027248,10.8964578 C9.5027248,14.1907357 12.2057221,16.893733 15.5,16.893733 Z M15.5,6.58855586 C17.8651226,6.58855586 19.8079019,8.53133515 19.8079019,10.8964578 C19.8079019,13.2615804 17.8651226,15.2043597 15.5,15.2043597 C13.1348774,15.2043597 11.1920981,13.2615804 11.1920981,10.8964578 C11.1920981,8.53133515 13.1348774,6.58855586 15.5,6.58855586 Z"></path>
        </g>
    </g>
</svg>