<?xml version="1.0" encoding="UTF-8"?>
<svg width="37px" height="56px" viewBox="0 0 37 56" version="1.1" xmlns="http://www.w3.org/2000/svg" xmlns:xlink="http://www.w3.org/1999/xlink">
    <!-- Generator: Sketch 49.2 (51160) - http://www.bohemiancoding.com/sketch -->
    <title>lock</title>
    <desc>Created with Sketch.</desc>
    <defs></defs>
    <g id="Page-1" stroke="none" stroke-width="1" fill="none" fill-rule="evenodd">
        <g id="Tweether-Landing" transform="translate(-720.000000, -183.000000)" fill="#FFFFFF" fill-rule="nonzero">
            <path d="M753.636364,209.642424 L753.636364,198.10303 C753.636364,189.787879 746.909091,183 738.5,183 C730.090909,183 723.363636,189.787879 723.363636,198.10303 L723.363636,209.642424 C721.177273,212.69697 720,216.430303 720,220.333333 C720,230.684848 728.240909,239 738.5,239 C748.759091,239 757,230.684848 757,220.333333 C757,216.260606 755.822727,212.69697 753.636364,209.642424 Z M740.25,221.166667 L740.25,225 L736.75,225 L736.75,221.166667 C735.7,220.666667 735,219.5 735,218.333333 C735,216.5 736.575,215 738.5,215 C740.425,215 742,216.5 742,218.333333 C742,219.5 741.3,220.666667 740.25,221.166667 Z M747,204 C744.475248,202.650602 741.613861,201.975904 738.584158,201.975904 C735.554455,201.975904 732.693069,202.819277 730,204 L730,198.433735 C730,193.710843 733.871287,190 738.415842,190 C743.128713,190 746.831683,193.710843 746.831683,198.433735 L746.831683,204 L747,204 Z" id="lock"></path>
        </g>
    </g>
</svg>