<?xml version="1.0" encoding="UTF-8"?>
<svg width="54px" height="41px" viewBox="0 0 54 41" version="1.1" xmlns="http://www.w3.org/2000/svg" xmlns:xlink="http://www.w3.org/1999/xlink">
    <!-- Generator: Sketch 49.2 (51160) - http://www.bohemiancoding.com/sketch -->
    <title>logomark</title>
    <desc>Created with Sketch.</desc>
    <defs></defs>
    <g id="Symbols" stroke="none" stroke-width="1" fill="none" fill-rule="evenodd">
        <g id="header" transform="translate(-25.000000, -11.000000)" fill="#A197F2">
            <g id="logotype">
                <g transform="translate(25.000000, 11.000000)">
                    <path d="M37.1352322,8.5174614 C39.537949,8.53589576 41.7793788,8.35767197 43.8595217,7.98279003 C46.2444509,7.55297969 48.5838591,6.83465458 50.8777462,5.8278147 C49.8390142,7.98345608 48.6962308,9.75730909 47.4493963,11.1493737 C46.2025617,12.5414384 44.7146963,13.7046494 42.9858002,14.6390067 C44.3889313,14.7930855 46.0429905,14.7930855 47.9479778,14.6390067 C49.8529651,14.484928 51.8592561,14.1888724 53.9668506,13.75084 C51.9465101,16.0183203 49.6205258,18.1034037 46.9888978,20.0060903 C45.0640706,21.3977547 42.9747495,22.6925509 40.7209347,23.8904788 C39.1051376,33.598881 30.6668808,41 20.5,41 C9.17816263,41 0,31.8218374 0,20.5 C0,9.17816263 9.17816263,0 20.5,0 C27.3483417,0 33.4123586,3.35809333 37.1352322,8.5174614 Z" id="logomark"></path>
                </g>
            </g>
        </g>
    </g>
</svg>