<?xml version="1.0" encoding="UTF-8"?>
<svg width="189px" height="41px" viewBox="0 0 189 41" version="1.1" xmlns="http://www.w3.org/2000/svg" xmlns:xlink="http://www.w3.org/1999/xlink">
    <!-- Generator: Sketch 47.1 (45422) - http://www.bohemiancoding.com/sketch -->
    <title>logotype</title>
    <desc>Created with Sketch.</desc>
    <defs></defs>
    <g id="Symbols" stroke="none" stroke-width="1" fill="none" fill-rule="evenodd">
        <g id="header" transform="translate(-25.000000, -11.000000)">
            <g id="logotype">
                <g transform="translate(25.000000, 11.000000)">
                    <path d="M37.1352322,8.5174614 C33.4123586,3.35809333 27.3483417,0 20.5,0 C9.17816263,0 0,9.17816263 0,20.5 C0,31.8218374 9.17816263,41 20.5,41 C30.6668808,41 39.1051376,33.598881 40.7209347,23.8904788 C42.9747495,22.6925509 45.0640706,21.3977547 46.9888978,20.0060903 C49.6205258,18.1034037 51.9465101,16.0183203 53.9668506,13.75084 C51.8592561,14.1888724 49.8529651,14.484928 47.9479778,14.6390067 C46.0429905,14.7930855 44.3889313,14.7930855 42.9858002,14.6390067 C44.7146963,13.7046494 46.2025617,12.5414384 47.4493963,11.1493737 C48.6962308,9.75730909 49.8390142,7.98345608 50.8777462,5.8278147 C48.5838591,6.83465458 46.2444509,7.55297969 43.8595217,7.98279003 C41.7793788,8.35767197 39.537949,8.53589576 37.1352322,8.5174614 Z" id="logomark" fill="#A197F2"></path>
                    <path d="M76.751,12.261 L80.936,11.613 L79.91,15.798 L84.392,15.798 L83.582,19.092 L79.127,19.092 L77.939,24.06 C77.8309995,24.4740021 77.7635001,24.8609982 77.7365,25.221 C77.7094999,25.5810018 77.7544994,25.8914987 77.8715,26.1525 C77.9885006,26.4135013 78.1909986,26.6159993 78.479,26.76 C78.7670014,26.9040007 79.1629975,26.976 79.667,26.976 C80.0990022,26.976 80.517498,26.9355004 80.9225,26.8545 C81.327502,26.7734996 81.7369979,26.6610007 82.151,26.517 L82.448,29.595 C81.9079973,29.793001 81.3230032,29.9639993 80.693,30.108 C80.0629969,30.2520007 79.3160043,30.324 78.452,30.324 C77.2099938,30.324 76.2470034,30.1395018 75.563,29.7705 C74.8789966,29.4014982 74.3930014,28.8975032 74.105,28.2585 C73.8169986,27.6194968 73.6909998,26.8860041 73.727,26.058 C73.7630002,25.2299959 73.8889989,24.3570046 74.105,23.439 L76.751,12.261 Z M95.516,21.684 C95.1739983,22.4220037 94.7915021,23.1734962 94.3685,23.9385 C93.9454979,24.7035038 93.5135022,25.4504964 93.0725,26.1795 C92.6314978,26.9085036 92.2040021,27.6014967 91.79,28.2585 C91.3759979,28.9155033 91.0070016,29.4959975 90.683,30 L87.551,30 C87.4069993,29.2439962 87.2585008,28.3440052 87.1055,27.3 C86.9524992,26.2559948 86.8040007,25.1175062 86.66,23.8845 C86.5159993,22.6514938 86.3855006,21.3465069 86.2685,19.9695 C86.1514994,18.5924931 86.0660003,17.202007 86.012,15.798 L89.954,15.798 C89.954,16.4460032 89.9585,17.1479962 89.9675,17.904 C89.9765,18.6600038 89.9944999,19.442996 90.0215,20.253 C90.0485001,21.063004 90.0889997,21.8909958 90.143,22.737 C90.1970003,23.5830042 90.2689995,24.4199959 90.359,25.248 C90.8090022,24.4919962 91.2544978,23.7045041 91.6955,22.8855 C92.1365022,22.0664959 92.559498,21.2475041 92.9645,20.4285 C93.369502,19.6094959 93.7474982,18.804004 94.0985,18.012 C94.4495018,17.219996 94.7599986,16.4820034 95.03,15.798 L98.378,15.798 C98.378,17.0940065 98.4004998,18.542992 98.4455,20.145 C98.4905002,21.747008 98.6029991,23.447991 98.783,25.248 C99.2690024,24.437996 99.7189979,23.6055043 100.133,22.7505 C100.547002,21.8954957 100.929498,21.0540041 101.2805,20.226 C101.631502,19.3979959 101.946499,18.6060038 102.2255,17.85 C102.504501,17.0939962 102.751999,16.4100031 102.968,15.798 L107.234,15.798 C106.873998,16.6980045 106.446502,17.7104944 105.9515,18.8355 C105.456498,19.9605056 104.885003,21.1439938 104.237,22.386 C103.588997,23.6280062 102.860004,24.8969935 102.05,26.193 C101.239996,27.4890065 100.340005,28.7579938 99.35,30 L96.218,30 C96.0019989,28.5239926 95.8400005,27.1110068 95.732,25.761 C95.6239995,24.4109933 95.5520002,23.0520068 95.516,21.684 Z M107.504,24.438 C107.504,23.2859942 107.706498,22.1700054 108.1115,21.09 C108.516502,20.0099946 109.087996,19.0515042 109.826,18.2145 C110.564004,17.3774958 111.459495,16.7025026 112.5125,16.1895 C113.565505,15.6764974 114.730994,15.42 116.009,15.42 C116.639003,15.42 117.223997,15.5099991 117.764,15.69 C118.304003,15.8700009 118.776498,16.1309983 119.1815,16.473 C119.586502,16.8150017 119.901499,17.2334975 120.1265,17.7285 C120.351501,18.2235025 120.464,18.7859969 120.464,19.416 C120.464,20.424005 120.239002,21.2789965 119.789,21.981 C119.338998,22.6830035 118.713504,23.2544978 117.9125,23.6955 C117.111496,24.1365022 116.162005,24.455999 115.064,24.654 C113.965995,24.852001 112.769006,24.951 111.473,24.951 C111.599001,25.7070038 111.873498,26.2424984 112.2965,26.5575 C112.719502,26.8725016 113.389995,27.03 114.308,27.03 C114.884003,27.03 115.468997,26.9805005 116.063,26.8815 C116.657003,26.7824995 117.214997,26.634001 117.737,26.436 L118.034,29.595 C117.529997,29.793001 116.886504,29.9729992 116.1035,30.135 C115.320496,30.2970008 114.470005,30.378 113.552,30.378 C112.435994,30.378 111.495504,30.2205016 110.7305,29.9055 C109.965496,29.5904984 109.344502,29.1630027 108.8675,28.623 C108.390498,28.0829973 108.044001,27.4530036 107.828,26.733 C107.611999,26.0129964 107.504,25.248004 107.504,24.438 Z M115.361,18.606 C114.442995,18.606 113.637503,18.9344967 112.9445,19.5915 C112.251497,20.2485033 111.797001,21.1169946 111.581,22.197 C112.697006,22.1609998 113.596997,22.0665008 114.281,21.9135 C114.965003,21.7604992 115.495998,21.5760011 115.874,21.36 C116.252002,21.1439989 116.503999,20.9100013 116.63,20.658 C116.756001,20.4059987 116.819,20.1540013 116.819,19.902 C116.819,19.0379957 116.333005,18.606 115.361,18.606 Z M121.814,24.438 C121.814,23.2859942 122.016498,22.1700054 122.4215,21.09 C122.826502,20.0099946 123.397996,19.0515042 124.136,18.2145 C124.874004,17.3774958 125.769495,16.7025026 126.8225,16.1895 C127.875505,15.6764974 129.040994,15.42 130.319,15.42 C130.949003,15.42 131.533997,15.5099991 132.074,15.69 C132.614003,15.8700009 133.086498,16.1309983 133.4915,16.473 C133.896502,16.8150017 134.211499,17.2334975 134.4365,17.7285 C134.661501,18.2235025 134.774,18.7859969 134.774,19.416 C134.774,20.424005 134.549002,21.2789965 134.099,21.981 C133.648998,22.6830035 133.023504,23.2544978 132.2225,23.6955 C131.421496,24.1365022 130.472005,24.455999 129.374,24.654 C128.275995,24.852001 127.079006,24.951 125.783,24.951 C125.909001,25.7070038 126.183498,26.2424984 126.6065,26.5575 C127.029502,26.8725016 127.699995,27.03 128.618,27.03 C129.194003,27.03 129.778997,26.9805005 130.373,26.8815 C130.967003,26.7824995 131.524997,26.634001 132.047,26.436 L132.344,29.595 C131.839997,29.793001 131.196504,29.9729992 130.4135,30.135 C129.630496,30.2970008 128.780005,30.378 127.862,30.378 C126.745994,30.378 125.805504,30.2205016 125.0405,29.9055 C124.275496,29.5904984 123.654502,29.1630027 123.1775,28.623 C122.700498,28.0829973 122.354001,27.4530036 122.138,26.733 C121.921999,26.0129964 121.814,25.248004 121.814,24.438 Z M129.671,18.606 C128.752995,18.606 127.947503,18.9344967 127.2545,19.5915 C126.561497,20.2485033 126.107001,21.1169946 125.891,22.197 C127.007006,22.1609998 127.906997,22.0665008 128.591,21.9135 C129.275003,21.7604992 129.805998,21.5760011 130.184,21.36 C130.562002,21.1439989 130.813999,20.9100013 130.94,20.658 C131.066001,20.4059987 131.129,20.1540013 131.129,19.902 C131.129,19.0379957 130.643005,18.606 129.671,18.606 Z M139.175,12.261 L143.36,11.613 L142.334,15.798 L146.816,15.798 L146.006,19.092 L141.551,19.092 L140.363,24.06 C140.254999,24.4740021 140.1875,24.8609982 140.1605,25.221 C140.1335,25.5810018 140.178499,25.8914987 140.2955,26.1525 C140.412501,26.4135013 140.614999,26.6159993 140.903,26.76 C141.191001,26.9040007 141.586997,26.976 142.091,26.976 C142.523002,26.976 142.941498,26.9355004 143.3465,26.8545 C143.751502,26.7734996 144.160998,26.6610007 144.575,26.517 L144.872,29.595 C144.331997,29.793001 143.747003,29.9639993 143.117,30.108 C142.486997,30.2520007 141.740004,30.324 140.876,30.324 C139.633994,30.324 138.671003,30.1395018 137.987,29.7705 C137.302997,29.4014982 136.817001,28.8975032 136.529,28.2585 C136.240999,27.6194968 136.115,26.8860041 136.151,26.058 C136.187,25.2299959 136.312999,24.3570046 136.529,23.439 L139.175,12.261 Z M156.131,15.555 C156.905004,15.555 157.570997,15.6674989 158.129,15.8925 C158.687003,16.1175011 159.145998,16.432498 159.506,16.8375 C159.866002,17.242502 160.135999,17.7239972 160.316,18.282 C160.496001,18.8400028 160.586,19.4429968 160.586,20.091 C160.586,20.8470038 160.496001,21.5939963 160.316,22.332 L158.48,30 L154.457,30 L156.239,22.494 C156.311,22.1879985 156.3785,21.8640017 156.4415,21.522 C156.5045,21.1799983 156.536,20.8560015 156.536,20.55 C156.536,20.0819977 156.414501,19.6815017 156.1715,19.3485 C155.928499,19.0154983 155.465003,18.849 154.781,18.849 C154.492999,18.849 154.218501,18.8669998 153.9575,18.903 C153.696499,18.9390002 153.440001,18.9839997 153.188,19.038 L150.569,30 L146.546,30 L151.406,9.696 L155.591,9.048 L153.944,15.825 C154.304002,15.7529996 154.668498,15.6900003 155.0375,15.636 C155.406502,15.5819997 155.770998,15.555 156.131,15.555 Z M162.611,24.438 C162.611,23.2859942 162.813498,22.1700054 163.2185,21.09 C163.623502,20.0099946 164.194996,19.0515042 164.933,18.2145 C165.671004,17.3774958 166.566495,16.7025026 167.6195,16.1895 C168.672505,15.6764974 169.837994,15.42 171.116,15.42 C171.746003,15.42 172.330997,15.5099991 172.871,15.69 C173.411003,15.8700009 173.883498,16.1309983 174.2885,16.473 C174.693502,16.8150017 175.008499,17.2334975 175.2335,17.7285 C175.458501,18.2235025 175.571,18.7859969 175.571,19.416 C175.571,20.424005 175.346002,21.2789965 174.896,21.981 C174.445998,22.6830035 173.820504,23.2544978 173.0195,23.6955 C172.218496,24.1365022 171.269005,24.455999 170.171,24.654 C169.072995,24.852001 167.876006,24.951 166.58,24.951 C166.706001,25.7070038 166.980498,26.2424984 167.4035,26.5575 C167.826502,26.8725016 168.496995,27.03 169.415,27.03 C169.991003,27.03 170.575997,26.9805005 171.17,26.8815 C171.764003,26.7824995 172.321997,26.634001 172.844,26.436 L173.141,29.595 C172.636997,29.793001 171.993504,29.9729992 171.2105,30.135 C170.427496,30.2970008 169.577005,30.378 168.659,30.378 C167.542994,30.378 166.602504,30.2205016 165.8375,29.9055 C165.072496,29.5904984 164.451502,29.1630027 163.9745,28.623 C163.497498,28.0829973 163.151001,27.4530036 162.935,26.733 C162.718999,26.0129964 162.611,25.248004 162.611,24.438 Z M170.468,18.606 C169.549995,18.606 168.744503,18.9344967 168.0515,19.5915 C167.358497,20.2485033 166.904001,21.1169946 166.688,22.197 C167.804006,22.1609998 168.703997,22.0665008 169.388,21.9135 C170.072003,21.7604992 170.602998,21.5760011 170.981,21.36 C171.359002,21.1439989 171.610999,20.9100013 171.737,20.658 C171.863001,20.4059987 171.926,20.1540013 171.926,19.902 C171.926,19.0379957 171.440005,18.606 170.468,18.606 Z M186.965,19.254 C186.604998,19.1639995 186.249502,19.0785004 185.8985,18.9975 C185.547498,18.9164996 185.030003,18.876 184.346,18.876 C184.093999,18.876 183.815002,18.8984998 183.509,18.9435 C183.202998,18.9885002 182.951001,19.0379997 182.753,19.092 L180.134,30 L176.111,30 L179.351,16.554 C180.125004,16.3019987 180.993495,16.0635011 181.9565,15.8385 C182.919505,15.6134989 184.003994,15.501 185.21,15.501 C185.660002,15.501 186.159497,15.5414996 186.7085,15.6225 C187.257503,15.7035004 187.738998,15.8339991 188.153,16.014 L186.965,19.254 Z" id="tweether" fill="#6C6A91"></path>
                </g>
            </g>
        </g>
    </g>
</svg>