<?xml version="1.0" encoding="UTF-8"?>
<svg width="31px" height="32px" viewBox="0 0 31 32" version="1.1" xmlns="http://www.w3.org/2000/svg" xmlns:xlink="http://www.w3.org/1999/xlink">
    <!-- Generator: Sketch 47.1 (45422) - http://www.bohemiancoding.com/sketch -->
    <title>metamask</title>
    <desc>Created with Sketch.</desc>
    <defs></defs>
    <g id="Page-1" stroke="none" stroke-width="1" fill="none" fill-rule="evenodd">
        <g id="Tweether-Landing" transform="translate(-620.000000, -300.000000)" stroke-width="0.5" fill-rule="nonzero">
            <g id="metamask" transform="translate(621.000000, 301.000000)">
                <polygon id="Shape" stroke="#E4761B" fill="#E4761B" points="27.4816377 20.7565632 25.7258065 26.6634845 22.2789082 25.725537"></polygon>
                <polygon id="Shape" stroke="#E4761B" fill="#E4761B" points="22.2789082 25.725537 25.6034739 21.1933174 27.4816377 20.7565632"></polygon>
                <path d="M24.898263,16.3031026 L27.4816377,20.7565632 L25.6034739,21.1933174 L24.898263,16.3031026 Z M24.898263,16.3031026 L26.5605459,15.1575179 L27.4816377,20.7565632 L24.898263,16.3031026 Z" id="Shape" stroke="#F6851B" fill="#F6851B"></path>
                <path d="M22.7826303,12.9379475 L27.560794,10.9904535 L27.3233251,12.0572792 L22.7826303,12.9379475 Z M27.1722084,13.3389021 L22.7826303,12.9379475 L27.3233251,12.0572792 L27.1722084,13.3389021 Z" id="Shape" stroke="#763D16" fill="#763D16"></path>
                <path d="M27.1722084,13.3389021 L26.5605459,15.1575179 L22.7826303,12.9379475 L27.1722084,13.3389021 Z M28.1292804,11.4415274 L27.3233251,12.0572792 L27.560794,10.9904535 L28.1292804,11.4415274 Z M27.1722084,13.3389021 L27.3233251,12.0572792 L27.9637717,12.5871122 L27.1722084,13.3389021 Z" id="Shape" stroke="#763D16" fill="#763D16"></path>
                <polygon id="Shape" stroke="#E2761B" fill="#E2761B" points="18.5729529 24.2863962 19.7674938 24.6658711 22.2789082 25.725537"></polygon>
                <path d="M26.5605459,15.1575179 L27.1722084,13.3389021 L27.6975186,13.7398568 L26.5605459,15.1575179 Z M26.5605459,15.1575179 L21.6024814,13.5322196 L22.7826303,12.9379475 L26.5605459,15.1575179 Z" id="Shape" stroke="#763D16" fill="#763D16"></path>
                <polygon id="Shape" stroke="#763D16" fill="#763D16" points="23.9627792 7.36038186 22.7826303 12.9379475 21.6024814 13.5322196"></polygon>
                <polygon id="Shape" stroke="#763D16" fill="#763D16" points="27.560794 10.9904535 22.7826303 12.9379475 23.9627792 7.36038186"></polygon>
                <polygon id="Shape" stroke="#763D16" fill="#763D16" points="23.9627792 7.36038186 28.9496278 6.7875895 27.560794 10.9904535"></polygon>
                <polygon id="Shape" stroke="#F6851B" fill="#F6851B" points="26.5605459 15.1575179 24.898263 16.3031026 21.6024814 13.5322196"></polygon>
                <polygon id="Shape" stroke="#763D16" fill="#763D16" points="28.7337469 2.77088305 28.9496278 6.7875895 23.9627792 7.36038186"></polygon>
                <polygon id="Shape" stroke="#E2761B" fill="#E2761B" points="28.7337469 2.77088305 18.7672457 9.98090692 18.6377171 5.09069212"></polygon>
                <polygon id="Shape" stroke="#F6851B" fill="#F6851B" points="11.2258065 4.50357995 18.6377171 5.09069212 18.7672457 9.98090692"></polygon>
                <polygon id="Shape" stroke="#763D16" fill="#763D16" points="21.6024814 13.5322196 18.7672457 9.98090692 23.9627792 7.36038186"></polygon>
                <polygon id="Shape" stroke="#E4761B" fill="#E4761B" points="21.6024814 13.5322196 24.898263 16.3031026 20.2712159 16.8114558"></polygon>
                <polygon id="Shape" stroke="#E4761B" fill="#E4761B" points="20.2712159 16.8114558 18.7672457 9.98090692 21.6024814 13.5322196"></polygon>
                <polygon id="Shape" stroke="#763D16" fill="#763D16" points="23.9627792 7.36038186 18.7672457 9.98090692 28.7337469 2.77088305"></polygon>
                <polygon id="Shape" stroke="#C0AD9E" fill="#C0AD9E" points="11.2905707 25.6109785 13.6436725 28.052506 10.4414392 25.1527446"></polygon>
                <polygon id="Shape" stroke="#CD6116" fill="#CD6116" points="22.2789082 25.725537 23.3942928 21.5083532 25.6034739 21.1933174"></polygon>
                <polygon id="Shape" stroke="#E2761B" fill="#E2761B" points="1.74863524 13.8615752 5.82158809 9.60143198 2.27394541 13.353222"></polygon>
                <path d="M25.6034739,21.1933174 L23.3942928,21.5083532 L24.898263,16.3031026 L25.6034739,21.1933174 Z M18.7672457,9.98090692 L14.8022333,9.85202864 L11.2258065,4.50357995 L18.7672457,9.98090692 Z" id="Shape" stroke="#F6851B" fill="#F6851B"></path>
                <polygon id="Shape" stroke="#E4751F" fill="#E4751F" points="24.898263 16.3031026 23.3942928 21.5083532 23.2719603 18.9665871"></polygon>
                <polygon id="Shape" stroke="#CD6116" fill="#CD6116" points="20.2712159 16.8114558 24.898263 16.3031026 23.2719603 18.9665871"></polygon>
                <polygon id="Shape" stroke="#F6851B" fill="#F6851B" points="14.8022333 9.85202864 18.7672457 9.98090692 20.2712159 16.8114558"></polygon>
                <path d="M14.8022333,9.85202864 L4.10173697,0 L11.2258065,4.50357995 L14.8022333,9.85202864 Z M11.2186104,27.1073986 L1.92133995,29.9713604 L0.064764268,22.9188544 L11.2186104,27.1073986 Z" id="Shape" stroke="#E4761B" fill="#E4761B"></path>
                <polygon id="Shape" stroke="#763D16" fill="#763D16" points="3.13027295 15.6229117 6.64193548 12.8806683 9.58511166 13.5608592"></polygon>
                <polygon id="Shape" stroke="#763D16" fill="#763D16" points="9.58511166 13.5608592 6.64193548 12.8806683 8.217866 6.40811456"></polygon>
                <polygon id="Shape" stroke="#763D16" fill="#763D16" points="2.27394541 13.353222 6.64193548 12.8806683 3.13027295 15.6229117"></polygon>
                <polygon id="Shape" stroke="#CD6116" fill="#CD6116" points="23.2719603 18.9665871 21.4585608 18.0572792 20.2712159 16.8114558"></polygon>
                <polygon id="Shape" stroke="#763D16" fill="#763D16" points="2.27394541 13.353222 1.96451613 11.7279236 6.64193548 12.8806683"></polygon>
                <polygon id="Shape" stroke="#233447" fill="#233447" points="21.0843672 20.1050119 21.4585608 18.0572792 23.2719603 18.9665871"></polygon>
                <polygon id="Shape" stroke="#F6851B" fill="#F6851B" points="23.3942928 21.5083532 21.0843672 20.1050119 23.2719603 18.9665871"></polygon>
                <path d="M6.64193548,12.8806683 L1.96451613,11.7279236 L1.58312655,10.3603819 L6.64193548,12.8806683 Z M8.217866,6.40811456 L6.64193548,12.8806683 L1.58312655,10.3603819 L8.217866,6.40811456 Z M8.217866,6.40811456 L14.8022333,9.85202864 L9.58511166,13.5608592 L8.217866,6.40811456 Z" id="Shape" stroke="#763D16" fill="#763D16"></path>
                <path d="M9.58511166,13.5608592 L14.8022333,9.85202864 L17.1265509,16.9188544 L9.58511166,13.5608592 Z M17.1265509,16.9188544 L9.91612903,16.7684964 L9.58511166,13.5608592 L17.1265509,16.9188544 Z" id="Shape" stroke="#E4761B" fill="#E4761B"></path>
                <path d="M3.13027295,15.6229117 L9.58511166,13.5608592 L9.91612903,16.7684964 L3.13027295,15.6229117 Z M20.2712159,16.8114558 L17.1265509,16.9188544 L14.8022333,9.85202864 L20.2712159,16.8114558 Z" id="Shape" stroke="#F6851B" fill="#F6851B"></path>
                <polygon id="Shape" stroke="#CD6116" fill="#CD6116" points="21.4585608 18.0572792 21.0843672 20.1050119 20.2712159 16.8114558"></polygon>
                <polygon id="Shape" stroke="#763D16" fill="#763D16" points="4.10173697 0 14.8022333 9.85202864 8.217866 6.40811456"></polygon>
                <polygon id="Shape" stroke="#E4761B" fill="#E4761B" points="0.064764268 22.9188544 9.08858561 22.5465394 11.2186104 27.1073986"></polygon>
                <polygon id="Shape" stroke="#CD6116" fill="#CD6116" points="11.2186104 27.1073986 9.08858561 22.5465394 13.52134 22.3317422"></polygon>
                <path d="M21.0843672,20.1050119 L23.3942928,21.5083532 L24.6679901,24.4940334 L21.0843672,20.1050119 Z M9.91612903,16.7684964 L0.064764268,22.9188544 L3.13027295,15.6229117 L9.91612903,16.7684964 Z M9.08858561,22.5465394 L0.064764268,22.9188544 L9.91612903,16.7684964 L9.08858561,22.5465394 Z M20.2712159,16.8114558 L20.8612903,18.9451074 L18.0116625,19.1097852 L20.2712159,16.8114558 Z M18.0116625,19.1097852 L17.1265509,16.9188544 L20.2712159,16.8114558 L18.0116625,19.1097852 Z" id="Shape" stroke="#F6851B" fill="#F6851B"></path>
                <polygon id="Shape" stroke="#C0AD9E" fill="#C0AD9E" points="13.6436725 28.052506 11.2186104 27.1073986 19.6523573 28.5178998"></polygon>
                <polygon id="Shape" stroke="#763D16" fill="#763D16" points="3.13027295 15.6229117 1.74863524 13.8615752 2.27394541 13.353222"></polygon>
                <polygon id="Shape" stroke="#D7C1B3" fill="#D7C1B3" points="20.6094293 27.4725537 19.6523573 28.5178998 11.2186104 27.1073986"></polygon>
                <polygon id="Shape" stroke="#E4761B" fill="#E4761B" points="21.0627792 24.9093079 11.2186104 27.1073986 13.52134 22.3317422"></polygon>
                <polygon id="Shape" stroke="#D7C1B3" fill="#D7C1B3" points="11.2186104 27.1073986 21.0627792 24.9093079 20.6094293 27.4725537"></polygon>
                <path d="M1.58312655,10.3603819 L1.25930521,4.85441527 L8.217866,6.40811456 L1.58312655,10.3603819 Z M2.27394541,13.353222 L1.31687345,12.3866348 L1.96451613,11.7279236 L2.27394541,13.353222 Z" id="Shape" stroke="#763D16" fill="#763D16"></path>
                <polygon id="Shape" stroke="#CD6116" fill="#CD6116" points="15.5146402 18.3365155 17.1265509 16.9188544 16.8962779 20.3842482"></polygon>
                <polygon id="Shape" stroke="#CD6116" fill="#CD6116" points="17.1265509 16.9188544 15.5146402 18.3365155 13.1687345 19.5465394"></polygon>
                <polygon id="Shape" stroke="#F6851B" fill="#F6851B" points="24.6679901 24.4940334 24.2290323 24.1718377 21.0843672 20.1050119"></polygon>
                <polygon id="Shape" stroke="#CD6116" fill="#CD6116" points="13.1687345 19.5465394 9.91612903 16.7684964 17.1265509 16.9188544"></polygon>
                <polygon id="Shape" stroke="#E4751F" fill="#E4751F" points="16.8962779 20.3842482 17.1265509 16.9188544 18.0116625 19.1097852"></polygon>
                <polygon id="Shape" stroke="#763D16" fill="#763D16" points="1.00024814 10.9045346 1.58312655 10.3603819 1.96451613 11.7279236"></polygon>
                <polygon id="Shape" stroke="#233447" fill="#233447" points="16.8962779 20.3842482 13.1687345 19.5465394 15.5146402 18.3365155"></polygon>
                <polygon id="Shape" stroke="#763D16" fill="#763D16" points="8.217866 6.40811456 1.25930521 4.85441527 4.10173697 0"></polygon>
                <polygon id="Shape" stroke="#C0AD9E" fill="#C0AD9E" points="19.6523573 28.5178998 20.048139 29.5918854 13.6436725 28.052506"></polygon>
                <polygon id="Shape" stroke="#F6851B" fill="#F6851B" points="13.52134 22.3317422 13.1687345 19.5465394 16.8962779 20.3842482"></polygon>
                <polygon id="Shape" stroke="#E4751F" fill="#E4751F" points="9.91612903 16.7684964 13.1687345 19.5465394 13.52134 22.3317422"></polygon>
                <path d="M18.0116625,19.1097852 L20.8612903,18.9451074 L24.2290323,24.1718377 L18.0116625,19.1097852 Z M9.91612903,16.7684964 L13.52134,22.3317422 L9.08858561,22.5465394 L9.91612903,16.7684964 Z" id="Shape" stroke="#F6851B" fill="#F6851B"></path>
                <polygon id="Shape" stroke="#E4751F" fill="#E4751F" points="18.0116625 19.1097852 21.5521092 24.4725537 16.8962779 20.3842482"></polygon>
                <polygon id="Shape" stroke="#F6851B" fill="#F6851B" points="16.8962779 20.3842482 21.5521092 24.4725537 21.0627792 24.9093079"></polygon>
                <path d="M21.0627792,24.9093079 L13.52134,22.3317422 L16.8962779,20.3842482 L21.0627792,24.9093079 Z M24.2290323,24.1718377 L21.5521092,24.4725537 L18.0116625,19.1097852 L24.2290323,24.1718377 Z" id="Shape" stroke="#F6851B" fill="#F6851B"></path>
                <path d="M24.9342432,26.6921241 L23.7828784,28.9904535 L20.048139,29.5918854 L24.9342432,26.6921241 Z M20.048139,29.5918854 L19.6523573,28.5178998 L20.6094293,27.4725537 L20.048139,29.5918854 Z" id="Shape" stroke="#C0AD9E" fill="#C0AD9E"></path>
                <path d="M20.6094293,27.4725537 L21.3146402,27.1933174 L20.048139,29.5918854 L20.6094293,27.4725537 Z M20.048139,29.5918854 L21.3146402,27.1933174 L24.9342432,26.6921241 L20.048139,29.5918854 Z" id="Shape" stroke="#C0AD9E" fill="#C0AD9E"></path>
                <polygon id="Shape" stroke="#161616" fill="#161616" points="24.2290323 24.1718377 25.1141439 24.7088305 22.4228288 25.0310263"></polygon>
                <path d="M22.4228288,25.0310263 L21.5521092,24.4725537 L24.2290323,24.1718377 L22.4228288,25.0310263 Z M22.1133995,25.4534606 L25.3875931,25.0596659 L24.9342432,26.6921241 L22.1133995,25.4534606 Z" id="Shape" stroke="#161616" fill="#161616"></path>
                <path d="M24.9342432,26.6921241 L21.3146402,27.1933174 L22.1133995,25.4534606 L24.9342432,26.6921241 Z M21.3146402,27.1933174 L20.6094293,27.4725537 L21.0627792,24.9093079 L21.3146402,27.1933174 Z M21.0627792,24.9093079 L21.5521092,24.4725537 L22.4228288,25.0310263 L21.0627792,24.9093079 Z M25.1141439,24.7088305 L25.3875931,25.0596659 L22.1133995,25.4534606 L25.1141439,24.7088305 Z" id="Shape" stroke="#161616" fill="#161616"></path>
                <path d="M22.1133995,25.4534606 L22.4228288,25.0310263 L25.1141439,24.7088305 L22.1133995,25.4534606 Z M21.0627792,24.9093079 L22.1133995,25.4534606 L21.3146402,27.1933174 L21.0627792,24.9093079 Z" id="Shape" stroke="#161616" fill="#161616"></path>
                <polygon id="Shape" stroke="#161616" fill="#161616" points="22.4228288 25.0310263 22.1133995 25.4534606 21.0627792 24.9093079"></polygon>
            </g>
        </g>
    </g>
</svg>